CommonSerif-Regular.ufo
<glyph name="numbersign" format="2">
  <advance width="465"/>
  <unicode hex="0023"/>
  <outline>
    <contour>
      <point x="91" y="14" type="line"/>
      <point x="103.21" y="9"/>
      <point x="115.79" y="9"/>
      <point x="128" y="14" type="curve"/>
      <point x="221" y="592" type="line"/>
      <point x="208.46" y="597"/>
      <point x="195.54" y="597"/>
      <point x="183" y="592" type="curve"/>
    </contour>
    <contour>
      <point x="242" y="14" type="line"/>
      <point x="254.54" y="9"/>
      <point x="267.46" y="9"/>
      <point x="280" y="14" type="curve"/>
      <point x="371" y="592" type="line"/>
      <point x="358.46" y="597"/>
      <point x="345.54" y="597"/>
      <point x="333" y="592" type="curve"/>
    </contour>
    <contour>
      <point x="137.831" y="198.988" type="line"/>
      <point x="289.932" y="198.988" type="line"/>
      <point x="289.932" y="238.431" type="line"/>
      <point x="137.831" y="238.431" type="line"/>
    </contour>
    <contour>
      <point x="168.96" y="367.954" type="line"/>
      <point x="315.815" y="367.954" type="line"/>
      <point x="315.815" y="406.938" type="line"/>
      <point x="168.96" y="406.938" type="line"/>
    </contour>
    <contour>
      <point x="218" y="198.988" type="line"/>
      <point x="218" y="237.988" type="line"/>
      <point x="45" y="237.988" type="line" smooth="yes"/>
      <point x="36" y="237.988"/>
      <point x="26" y="222.988"/>
      <point x="26" y="212.988" type="curve" smooth="yes"/>
      <point x="26" y="206.988"/>
      <point x="29" y="198.988"/>
      <point x="37" y="198.988" type="curve" smooth="yes"/>
    </contour>
    <contour>
      <point x="254.93" y="198.988" type="line"/>
      <point x="387.93" y="198.988" type="line" smooth="yes"/>
      <point x="399.93" y="198.988"/>
      <point x="408.93" y="213.988"/>
      <point x="408.93" y="224.988" type="curve" smooth="yes"/>
      <point x="408.93" y="229.988"/>
      <point x="405.93" y="237.988"/>
      <point x="396.93" y="237.988" type="curve" smooth="yes"/>
      <point x="254.93" y="237.988" type="line"/>
    </contour>
    <contour>
      <point x="248.509" y="367.947" type="line"/>
      <point x="248.509" y="406.947" type="line"/>
      <point x="75.5088" y="406.947" type="line" smooth="yes"/>
      <point x="66.5088" y="406.947"/>
      <point x="56.5088" y="391.947"/>
      <point x="56.5088" y="381.947" type="curve" smooth="yes"/>
      <point x="56.5088" y="375.947"/>
      <point x="59.5088" y="367.947"/>
      <point x="67.5088" y="367.947" type="curve" smooth="yes"/>
    </contour>
    <contour>
      <point x="281.408" y="367.947" type="line"/>
      <point x="414.408" y="367.947" type="line" smooth="yes"/>
      <point x="426.408" y="367.947"/>
      <point x="435.408" y="382.947"/>
      <point x="435.408" y="393.947" type="curve" smooth="yes"/>
      <point x="435.408" y="398.947"/>
      <point x="432.408" y="406.947"/>
      <point x="423.408" y="406.947" type="curve" smooth="yes"/>
      <point x="281.408" y="406.947" type="line"/>
    </contour>
  </outline>
</glyph>
<glyph name="onehalf" format="2">
  <advance width="618"/>
  <unicode hex="00BD"/>
  <outline>
    <contour>
      <point x="95" y="587" type="curve" smooth="yes"/>
      <point x="106" y="587"/>
      <point x="109" y="579.969"/>
      <point x="109" y="546" type="curve" smooth="yes"/>
      <point x="109" y="416" type="line" smooth="yes"/>
      <point x="109" y="376"/>
      <point x="93" y="362.969"/>
      <point x="38" y="360" type="curve"/>
      <point x="34" y="353"/>
      <point x="34" y="337.969"/>
      <point x="38" y="331" type="curve"/>
      <point x="61" y="332"/>
      <point x="83" y="331.984"/>
      <point x="134" y="332" type="curve" smooth="yes"/>
      <point x="178" y="332.014"/>
      <point x="194" y="331.969"/>
      <point x="218" y="331" type="curve"/>
      <point x="222" y="338"/>
      <point x="222" y="351.969"/>
      <point x="218" y="360" type="curve"/>
      <point x="174" y="363"/>
      <point x="163" y="373.969"/>
      <point x="163" y="416" type="curve" smooth="yes"/>
      <point x="163" y="547" type="line" smooth="yes"/>
      <point x="163" y="583"/>
      <point x="163" y="619.969"/>
      <point x="167" y="655" type="curve"/>
      <point x="165" y="657"/>
      <point x="161.845" y="657.956"/>
      <point x="159" y="658" type="curve" smooth="yes"/>
      <point x="156" y="658.047"/>
      <point x="152.065" y="656.867"/>
      <point x="149" y="655" type="curve" smooth="yes"/>
      <point x="111.063" y="631.896"/>
      <point x="84" y="618.969"/>
      <point x="28" y="599" type="curve"/>
      <point x="28" y="585"/>
      <point x="31" y="576.969"/>
      <point x="38" y="572" type="curve"/>
      <point x="68" y="583"/>
      <point x="84" y="587"/>
    </contour>
    <contour>
      <point x="503.794" y="656.717" type="line"/>
      <point x="36.6015" y="-10" type="line"/>
      <point x="77.6015" y="-10" type="line"/>
      <point x="545.794" y="656.717" type="line"/>
    </contour>
    <contour>
      <point x="355" y="252" type="curve" smooth="yes"/>
      <point x="355" y="234"/>
      <point x="367.88" y="222.094"/>
      <point x="385" y="222" type="curve" smooth="yes"/>
      <point x="402" y="221.907"/>
      <point x="413.788" y="232.552"/>
      <point x="414" y="253" type="curve" smooth="yes"/>
      <point x="414.083" y="261"/>
      <point x="412" y="270.863"/>
      <point x="416" y="280" type="curve"/>
      <point x="426" y="290"/>
      <point x="441.186" y="295"/>
      <point x="457" y="295" type="curve" smooth="yes"/>
      <point x="489" y="295.001"/>
      <point x="508" y="274.145"/>
      <point x="508" y="236" type="curve" smooth="yes"/>
      <point x="508" y="201"/>
      <point x="491.767" y="167.59"/>
      <point x="462" y="143" type="curve" smooth="yes"/>
      <point x="439" y="124" type="line" smooth="yes"/>
      <point x="383.128" y="77.8448"/>
      <point x="349.732" y="36"/>
      <point x="350" y="12" type="curve" smooth="yes"/>
      <point x="350.056" y="7"/>
      <point x="351" y="3"/>
      <point x="353" y="0" type="curve"/>
      <point x="559" y="0" type="line"/>
      <point x="564" y="37"/>
      <point x="570" y="64.7099"/>
      <point x="578" y="94" type="curve"/>
      <point x="574" y="98"/>
      <point x="567" y="98.7672"/>
      <point x="554" y="99" type="curve"/>
      <point x="536" y="53"/>
      <point x="519" y="33"/>
      <point x="498" y="33" type="curve" smooth="yes"/>
      <point x="415" y="33" type="line"/>
      <point x="424" y="66"/>
      <point x="439.961" y="87.0807"/>
      <point x="481" y="119" type="curve" smooth="yes"/>
      <point x="490" y="126" type="line" smooth="yes"/>
      <point x="553.625" y="175.486"/>
      <point x="570" y="197.501"/>
      <point x="570" y="234" type="curve" smooth="yes"/>
      <point x="570" y="292"/>
      <point x="528.644" y="325"/>
      <point x="469" y="325" type="curve" smooth="yes"/>
      <point x="405" y="325"/>
      <point x="355" y="288"/>
    </contour>
  </outline>
</glyph>
<glyph name="ohorn" format="2">
  <advance width="501"/>
  <unicode hex="01A1"/>
  <anchor x="260" y="500" name="t.uni0302"/>
  <anchor x="269" y="-60" name="b.minus-60"/>
  <outline>
    <contour>
      <point x="41" y="213.574" type="curve" smooth="yes"/>
      <point x="41" y="103"/>
      <point x="109" y="-10"/>
      <point x="251" y="-10" type="curve" smooth="yes"/>
      <point x="381" y="-10"/>
      <point x="463" y="87"/>
      <point x="463" y="212.972" type="curve" smooth="yes"/>
      <point x="463" y="318"/>
      <point x="406" y="439"/>
      <point x="258.09" y="439" type="curve" smooth="yes"/>
      <point x="119" y="439"/>
      <point x="41" y="332"/>
    </contour>
    <contour>
      <point x="127" y="231.099" type="curve" smooth="yes"/>
      <point x="127" y="315"/>
      <point x="164.305" y="404"/>
      <point x="246.785" y="404" type="curve" smooth="yes"/>
      <point x="324" y="404"/>
      <point x="377" y="326"/>
      <point x="377" y="182" type="curve" smooth="yes"/>
      <point x="377" y="56"/>
      <point x="312" y="25"/>
      <point x="261.935" y="25" type="curve" smooth="yes"/>
      <point x="161" y="25"/>
      <point x="127" y="151"/>
    </contour>
    <contour>
      <point x="380.573" y="384.566" type="line"/>
      <point x="432.402" y="385.295"/>
      <point x="464" y="419.036"/>
      <point x="464" y="471.977" type="curve" smooth="yes"/>
      <point x="464" y="520"/>
      <point x="438" y="561"/>
      <point x="396.252" y="561" type="curve" smooth="yes"/>
      <point x="371" y="561"/>
      <point x="354" y="546"/>
      <point x="354" y="522" type="curve" smooth="yes"/>
      <point x="354" y="502"/>
      <point x="368.05" y="477.401"/>
      <point x="398.152" y="477.401" type="curve" smooth="yes"/>
      <point x="416.162" y="477.401"/>
      <point x="430" y="467"/>
      <point x="430" y="449.797" type="curve" smooth="yes"/>
      <point x="430" y="420"/>
      <point x="388" y="414"/>
      <point x="377" y="414" type="curve" smooth="yes"/>
      <point x="367.2" y="414"/>
      <point x="357.4" y="414"/>
      <point x="350.344" y="416.744" type="curve"/>
    </contour>
  </outline>
</glyph>
<glyph name="Uhorn" format="2">
  <advance width="690"/>
  <unicode hex="01AF"/>
  <anchor x="328" y="4" name="m.uni0327_5"/>
  <anchor x="346" y="740" name="t.uni0302"/>
  <anchor x="328" y="-110" name="m.uni0316_2"/>
  <outline>
    <contour>
      <point x="616" y="609" type="curve" smooth="yes"/>
      <point x="662" y="611.987"/>
      <point x="696" y="646"/>
      <point x="696" y="686" type="curve" smooth="yes"/>
      <point x="696" y="740"/>
      <point x="677" y="770"/>
      <point x="643" y="770" type="curve" smooth="yes"/>
      <point x="613" y="770"/>
      <point x="594" y="755"/>
      <point x="594" y="731" type="curve" smooth="yes"/>
      <point x="594" y="711"/>
      <point x="607" y="695"/>
      <point x="628" y="690" type="curve" smooth="yes"/>
      <point x="641" y="687"/>
      <point x="648" y="681"/>
      <point x="648" y="671" type="curve" smooth="yes"/>
      <point x="648" y="650"/>
      <point x="630" y="645"/>
      <point x="549" y="645" type="curve" smooth="yes"/>
      <point x="510" y="645"/>
      <point x="490" y="646"/>
      <point x="454" y="647" type="curve"/>
      <point x="434" y="647" type="line"/>
      <point x="428" y="641"/>
      <point x="428" y="620"/>
      <point x="434" y="614" type="curve"/>
      <point x="514" y="614"/>
      <point x="526" y="599"/>
      <point x="526" y="523" type="curve" smooth="yes"/>
      <point x="526" y="277" type="line" smooth="yes"/>
      <point x="526" y="153"/>
      <point x="492" y="31"/>
      <point x="342" y="31" type="curve" smooth="yes"/>
      <point x="203" y="31"/>
      <point x="172" y="155"/>
      <point x="172" y="269" type="curve" smooth="yes"/>
      <point x="172" y="523" type="line" smooth="yes"/>
      <point x="172" y="595"/>
      <point x="184" y="614"/>
      <point x="264" y="614" type="curve"/>
      <point x="270" y="620"/>
      <point x="270" y="641"/>
      <point x="264" y="647" type="curve"/>
      <point x="246" y="647" type="line"/>
      <point x="212" y="646"/>
      <point x="184" y="645"/>
      <point x="148" y="645" type="curve" smooth="yes"/>
      <point x="129" y="645" type="line" smooth="yes"/>
      <point x="89" y="645"/>
      <point x="66" y="646"/>
      <point x="28" y="647" type="curve"/>
      <point x="10" y="647" type="line"/>
      <point x="4" y="641"/>
      <point x="4" y="620"/>
      <point x="10" y="614" type="curve"/>
      <point x="83" y="614"/>
      <point x="87" y="584"/>
      <point x="87" y="523" type="curve" smooth="yes"/>
      <point x="87" y="236" type="line" smooth="yes"/>
      <point x="87" y="87"/>
      <point x="179" y="-10"/>
      <point x="321" y="-10" type="curve" smooth="yes"/>
      <point x="521" y="-10"/>
      <point x="575" y="113"/>
      <point x="575" y="295" type="curve" smooth="yes"/>
      <point x="575" y="523" type="line" smooth="yes"/>
      <point x="575" y="586"/>
      <point x="585" y="606.987"/>
    </contour>
  </outline>
</glyph>
<glyph name="uhorn" format="2">
  <advance width="531"/>
  <unicode hex="01B0"/>
  <anchor x="262" y="500" name="t.uni0302"/>
  <anchor x="281" y="-60" name="b.minus-60"/>
  <outline>
    <component base="u"/>
    <contour>
      <point x="424" y="401" type="line" smooth="yes"/>
      <point x="481" y="401"/>
      <point x="505" y="443"/>
      <point x="505" y="473" type="curve" smooth="yes"/>
      <point x="505" y="510"/>
      <point x="486" y="561"/>
      <point x="442" y="561" type="curve" smooth="yes"/>
      <point x="418" y="561"/>
      <point x="396" y="549"/>
      <point x="396" y="522" type="curve" smooth="yes"/>
      <point x="396" y="502"/>
      <point x="410.009" y="480.283"/>
      <point x="444" y="479" type="curve" smooth="yes"/>
      <point x="463.013" y="478.283"/>
      <point x="471" y="469"/>
      <point x="471" y="458" type="curve" smooth="yes"/>
      <point x="471" y="440"/>
      <point x="444" y="429"/>
      <point x="402" y="429" type="curve"/>
      <point x="402" y="401" type="line"/>
    </contour>
  </outline>
</glyph>
<glyph name="uni0235" format="2">
  <advance width="658"/>
  <unicode hex="0235"/>
  <anchor x="265" y="646" name="m.uni0302"/>
  <anchor x="266" y="-111" name="m.uni0316_2"/>
  <anchor x="132" y="9" name="m.uni0327_5"/>
  <outline>
    <contour>
      <point x="373" y="274" type="curve" smooth="yes"/>
      <point x="373" y="124" type="line" smooth="yes"/>
      <point x="373" y="119"/>
      <point x="373" y="115"/>
      <point x="373" y="110" type="curve" smooth="yes"/>
      <point x="373" y="46"/>
      <point x="409" y="16"/>
      <point x="438" y="1" type="curve"/>
      <point x="390" y="-84" type="line"/>
      <point x="409" y="-93" type="line"/>
      <point x="425" y="-64"/>
      <point x="440" y="-34"/>
      <point x="456" y="-5" type="curve"/>
      <point x="467" y="-9"/>
      <point x="479" y="-11"/>
      <point x="493" y="-12" type="curve"/>
      <point x="497" y="-12"/>
      <point x="502" y="-12"/>
      <point x="507" y="-12" type="curve" smooth="yes"/>
      <point x="565" y="-12"/>
      <point x="648" y="41"/>
      <point x="648" y="114" type="curve" smooth="yes"/>
      <point x="648" y="118"/>
      <point x="648" y="122"/>
      <point x="647" y="126" type="curve"/>
      <point x="643" y="150"/>
      <point x="627" y="177"/>
      <point x="588" y="177" type="curve" smooth="yes"/>
      <point x="584" y="177"/>
      <point x="580" y="177"/>
      <point x="577" y="176" type="curve"/>
      <point x="532" y="167"/>
      <point x="498" y="107"/>
      <point x="468" y="55" type="curve"/>
      <point x="452" y="72"/>
      <point x="452" y="104"/>
      <point x="452" y="171" type="curve" smooth="yes"/>
      <point x="452" y="175"/>
      <point x="452" y="179"/>
      <point x="452" y="184" type="curve" smooth="yes"/>
      <point x="452" y="271" type="line" smooth="yes"/>
      <point x="452" y="277"/>
      <point x="452" y="282"/>
      <point x="452" y="287" type="curve"/>
      <point x="451" y="335"/>
      <point x="446" y="377"/>
      <point x="425" y="405" type="curve" smooth="yes"/>
      <point x="408" y="427"/>
      <point x="377" y="439"/>
      <point x="342" y="439" type="curve" smooth="yes"/>
      <point x="293" y="439"/>
      <point x="247" y="426"/>
      <point x="188" y="358" type="curve" smooth="yes"/>
      <point x="182" y="351"/>
      <point x="176" y="349"/>
      <point x="176" y="358" type="curve"/>
      <point x="175" y="385"/>
      <point x="173" y="424"/>
      <point x="168" y="434" type="curve"/>
      <point x="166" y="439"/>
      <point x="164" y="442"/>
      <point x="156" y="442" type="curve"/>
      <point x="148" y="439" type="line"/>
      <point x="142" y="437"/>
      <point x="136" y="435"/>
      <point x="130" y="433" type="curve" smooth="yes"/>
      <point x="109" y="426"/>
      <point x="81" y="419"/>
      <point x="33" y="413" type="curve"/>
      <point x="31" y="407"/>
      <point x="33" y="391"/>
      <point x="35" y="385" type="curve"/>
      <point x="89" y="380"/>
      <point x="100" y="375"/>
      <point x="100" y="317" type="curve" smooth="yes"/>
      <point x="100" y="122" type="line" smooth="yes"/>
      <point x="100" y="97"/>
      <point x="99" y="80"/>
      <point x="96" y="67" type="curve" smooth="yes"/>
      <point x="92" y="50"/>
      <point x="85" y="42"/>
      <point x="72" y="37" type="curve"/>
      <point x="68" y="36"/>
      <point x="64" y="35"/>
      <point x="60" y="35" type="curve"/>
      <point x="56" y="34"/>
      <point x="52" y="33"/>
      <point x="47" y="33" type="curve"/>
      <point x="42" y="32"/>
      <point x="36" y="32"/>
      <point x="30" y="31" type="curve"/>
      <point x="24" y="25"/>
      <point x="24" y="4"/>
      <point x="30" y="-2" type="curve"/>
      <point x="60" y="-1"/>
      <point x="100" y="0"/>
      <point x="140" y="0" type="curve" smooth="yes"/>
      <point x="180" y="0"/>
      <point x="210" y="-1"/>
      <point x="240" y="-2" type="curve"/>
      <point x="242" y="0"/>
      <point x="243" y="4"/>
      <point x="244" y="8" type="curve" smooth="yes"/>
      <point x="245" y="12"/>
      <point x="245" y="17"/>
      <point x="244" y="21" type="curve" smooth="yes"/>
      <point x="243" y="25"/>
      <point x="242" y="29"/>
      <point x="240" y="31" type="curve"/>
      <point x="225" y="33"/>
      <point x="213" y="34"/>
      <point x="204" y="37" type="curve"/>
      <point x="193" y="42"/>
      <point x="186" y="50"/>
      <point x="183" y="67" type="curve"/>
      <point x="180" y="80"/>
      <point x="179" y="97"/>
      <point x="179" y="122" type="curve" smooth="yes"/>
      <point x="179" y="286" type="line" smooth="yes"/>
      <point x="179" y="307"/>
      <point x="188" y="319"/>
      <point x="196" y="328" type="curve"/>
      <point x="196" y="328" type="line"/>
      <point x="234" y="365"/>
      <point x="269" y="387"/>
      <point x="308" y="387" type="curve" smooth="yes"/>
      <point x="328" y="387"/>
      <point x="349" y="374"/>
      <point x="361" y="351" type="curve" smooth="yes"/>
      <point x="371" y="331"/>
      <point x="373" y="304"/>
    </contour>
    <contour>
      <point x="577" y="150" type="curve" smooth="yes"/>
      <point x="600" y="150"/>
      <point x="617" y="136"/>
      <point x="617" y="115" type="curve" smooth="yes"/>
      <point x="617" y="71"/>
      <point x="562" y="32"/>
      <point x="523" y="32" type="curve" smooth="yes"/>
      <point x="519" y="32"/>
      <point x="516" y="32"/>
      <point x="512" y="32" type="curve"/>
      <point x="499" y="34"/>
      <point x="489" y="37"/>
      <point x="480" y="43" type="curve"/>
      <point x="527" y="124"/>
      <point x="549" y="150"/>
    </contour>
  </outline>
</glyph>
<glyph name="uni0244" format="2">
  <advance width="661"/>
  <unicode hex="0244"/>
  <outline>
    <component base="U"/>
    <contour>
      <point x="130.5" y="366" type="line"/>
      <point x="130.5" y="327" type="line"/>
      <point x="551" y="327" type="line"/>
      <point x="551" y="366" type="line"/>
    </contour>
    <contour>
      <point x="200" y="327" type="line"/>
      <point x="200" y="366" type="line"/>
      <point x="27" y="366" type="line" smooth="yes"/>
      <point x="18" y="366"/>
      <point x="8" y="351"/>
      <point x="8" y="341" type="curve" smooth="yes"/>
      <point x="8" y="335"/>
      <point x="11" y="327"/>
      <point x="19" y="327" type="curve" smooth="yes"/>
    </contour>
    <contour>
      <point x="496" y="327" type="line"/>
      <point x="629" y="327" type="line" smooth="yes"/>
      <point x="641" y="327"/>
      <point x="650" y="342"/>
      <point x="650" y="353" type="curve" smooth="yes"/>
      <point x="650" y="358"/>
      <point x="647" y="366"/>
      <point x="638" y="366" type="curve" smooth="yes"/>
      <point x="496" y="366" type="line"/>
    </contour>
  </outline>
</glyph>
<glyph name="uni029D" format="2">
  <advance width="257"/>
  <unicode hex="029D"/>
  <anchor x="188" y="645" name="m.uni0302"/>
  <anchor x="175" y="-110" name="m.uni0316_2"/>
  <anchor x="389" y="16" name="b.uni0321_4"/>
  <anchor x="146" y="-3" name="m.uni0327_5"/>
  <outline>
    <contour>
      <point x="242" y="91" type="line"/>
      <point x="225" y="84"/>
      <point x="202" y="72"/>
      <point x="181" y="63" type="curve"/>
      <point x="181" y="321" type="line" smooth="yes"/>
      <point x="181" y="371"/>
      <point x="185" y="435"/>
      <point x="185" y="435" type="curve"/>
      <point x="185" y="439"/>
      <point x="180" y="442"/>
      <point x="172" y="442" type="curve"/>
      <point x="166" y="440"/>
      <point x="159" y="437"/>
      <point x="151" y="435" type="curve"/>
      <point x="125" y="427"/>
      <point x="89" y="420"/>
      <point x="35" y="413" type="curve"/>
      <point x="33" y="407"/>
      <point x="35" y="391"/>
      <point x="37" y="385" type="curve"/>
      <point x="60" y="383"/>
      <point x="75" y="381"/>
      <point x="85" y="374" type="curve"/>
      <point x="95" y="368"/>
      <point x="100" y="357"/>
      <point x="101" y="338" type="curve"/>
      <point x="102" y="332"/>
      <point x="102" y="325"/>
      <point x="102" y="317" type="curve" smooth="yes"/>
      <point x="102" y="76" type="line"/>
      <point x="102" y="76" type="line"/>
      <point x="102" y="76"/>
      <point x="102" y="76"/>
      <point x="102" y="76" type="curve"/>
      <point x="102" y="49"/>
      <point x="103" y="27"/>
      <point x="103" y="27" type="curve"/>
      <point x="-21" y="-33"/>
      <point x="-39" y="-77"/>
      <point x="-39" y="-117" type="curve" smooth="yes"/>
      <point x="-39" y="-159"/>
      <point x="-5" y="-177"/>
      <point x="35" y="-177" type="curve" smooth="yes"/>
      <point x="38" y="-177"/>
      <point x="41" y="-177"/>
      <point x="45" y="-177" type="curve"/>
      <point x="97" y="-172"/>
      <point x="164" y="-129"/>
      <point x="178" y="3" type="curve" smooth="yes"/>
      <point x="179" y="11"/>
      <point x="180" y="20"/>
      <point x="180" y="29" type="curve"/>
      <point x="197" y="38"/>
      <point x="206" y="43"/>
      <point x="213" y="46" type="curve"/>
      <point x="223" y="52"/>
      <point x="229" y="54"/>
      <point x="249" y="64" type="curve"/>
    </contour>
    <contour>
      <point x="75" y="599" type="curve" smooth="yes"/>
      <point x="75" y="573"/>
      <point x="99" y="547"/>
      <point x="123" y="547" type="curve" smooth="yes"/>
      <point x="151" y="547"/>
      <point x="175" y="574"/>
      <point x="175" y="595" type="curve" smooth="yes"/>
      <point x="175" y="619"/>
      <point x="154" y="647"/>
      <point x="127" y="647" type="curve" smooth="yes"/>
      <point x="103" y="647"/>
      <point x="75" y="623"/>
    </contour>
    <contour>
      <point x="37" y="-148" type="curve" smooth="yes"/>
      <point x="12" y="-148"/>
      <point x="-10" y="-137"/>
      <point x="-10" y="-111" type="curve" smooth="yes"/>
      <point x="-10" y="-71"/>
      <point x="31" y="-43"/>
      <point x="104" y="-4" type="curve"/>
      <point x="104" y="-12"/>
      <point x="104" y="-19"/>
      <point x="104" y="-27" type="curve" smooth="yes"/>
      <point x="104" y="-120"/>
      <point x="64" y="-148"/>
    </contour>
  </outline>
</glyph>
<glyph name="uni02F1" format="2">
  <advance width="282"/>
  <unicode hex="02F1"/>
  <outline>
    <contour>
      <point x="89" y="-130" type="line"/>
      <point x="252" y="-70" type="line"/>
      <point x="252" y="-32" type="line"/>
      <point x="20" y="-116" type="line"/>
      <point x="20" y="-144" type="line"/>
      <point x="252" y="-228" type="line"/>
      <point x="252" y="-190" type="line"/>
    </contour>
  </outline>
</glyph>
<glyph name="uni0342" format="2">
  <unicode hex="0342"/>
  <anchor x="-241" y="500" name="_t.uni0302"/>
  <outline>
    <contour>
      <point x="-182" y="551" type="curve" smooth="yes"/>
      <point x="-201" y="551"/>
      <point x="-218.402" y="557.481"/>
      <point x="-234" y="570" type="curve" smooth="yes"/>
      <point x="-254.07" y="586.108"/>
      <point x="-280.612" y="604"/>
      <point x="-306" y="604" type="curve" smooth="yes"/>
      <point x="-349" y="604"/>
      <point x="-372" y="565"/>
      <point x="-386" y="506" type="curve"/>
      <point x="-380" y="500"/>
      <point x="-370" y="499"/>
      <point x="-359" y="501" type="curve"/>
      <point x="-349" y="534"/>
      <point x="-339" y="549"/>
      <point x="-313" y="549" type="curve" smooth="yes"/>
      <point x="-296" y="549"/>
      <point x="-276.759" y="541.384"/>
      <point x="-259" y="530" type="curve" smooth="yes"/>
      <point x="-237.752" y="516.379"/>
      <point x="-217" y="498"/>
      <point x="-195" y="498" type="curve" smooth="yes"/>
      <point x="-149" y="498"/>
      <point x="-120" y="537"/>
      <point x="-108" y="597" type="curve"/>
      <point x="-114" y="601"/>
      <point x="-124" y="604"/>
      <point x="-135" y="603" type="curve"/>
      <point x="-149" y="561"/>
      <point x="-160" y="551"/>
    </contour>
  </outline>
</glyph>
<glyph name="upsilon" format="2">
  <advance width="486"/>
  <unicode hex="03C5"/>
  <anchor x="228" y="510" name="t.uni0302"/>
  <anchor x="231" y="510" name="t.gr"/>
  <anchor x="253" y="-60" name="ypogegrammeni"/>
  <outline>
    <contour>
      <point x="446" y="249" type="curve" smooth="yes"/>
      <point x="446" y="338.81"/>
      <point x="416.519" y="413.281"/>
      <point x="369.596" y="442" type="curve"/>
      <point x="273.26" y="422" type="line"/>
      <point x="273.26" y="412" type="line"/>
      <point x="347.617" y="357.709"/>
      <point x="405" y="317.426"/>
      <point x="405" y="237" type="curve" smooth="yes"/>
      <point x="405" y="141.616"/>
      <point x="338.427" y="76.4176"/>
      <point x="242.845" y="76.4176" type="curve" smooth="yes"/>
      <point x="173.024" y="76.4176"/>
      <point x="132.445" y="108.607"/>
      <point x="132.445" y="174.026" type="curve" smooth="yes"/>
      <point x="132.445" y="255.171"/>
      <point x="165.727" y="333.092"/>
      <point x="166" y="386" type="curve" smooth="yes"/>
      <point x="166.178" y="420.529"/>
      <point x="148.174" y="442"/>
      <point x="119.174" y="442" type="curve" smooth="yes"/>
      <point x="91.4651" y="442"/>
      <point x="40.1226" y="431.936"/>
      <point x="15.5199" y="422.008" type="curve"/>
      <point x="13.5199" y="416.008"/>
      <point x="15.5199" y="400.008"/>
      <point x="17.5199" y="394.008" type="curve"/>
      <point x="69.3507" y="390.306"/>
      <point x="81.4493" y="360.787"/>
      <point x="81.4458" y="327" type="curve" smooth="yes"/>
      <point x="81.4287" y="162.966" type="line" smooth="yes"/>
      <point x="81.4145" y="26.9066"/>
      <point x="164.768" y="-11.891"/>
      <point x="251.473" y="-12.0686" type="curve" smooth="yes"/>
      <point x="375.868" y="-12.3233"/>
      <point x="446" y="81.7985"/>
    </contour>
  </outline>
</glyph>
<glyph name="uni040A" format="2">
  <advance width="924"/>
  <unicode hex="040A"/>
  <outline>
    <contour>
      <point x="515" y="0" type="curve" smooth="yes"/>
      <point x="544" y="0"/>
      <point x="574" y="-2"/>
      <point x="610" y="-2" type="curve" smooth="yes"/>
      <point x="622" y="-2"/>
      <point x="635" y="-2"/>
      <point x="647" y="-1" type="curve"/>
      <point x="666" y="-1"/>
      <point x="685" y="1"/>
      <point x="704" y="3" type="curve"/>
      <point x="800" y="16"/>
      <point x="888" y="58"/>
      <point x="888" y="183" type="curve" smooth="yes"/>
      <point x="888" y="187"/>
      <point x="888" y="192"/>
      <point x="888" y="196" type="curve"/>
      <point x="885" y="274"/>
      <point x="854" y="361"/>
      <point x="680" y="379" type="curve" smooth="yes"/>
      <point x="660" y="381"/>
      <point x="638" y="382"/>
      <point x="613" y="382" type="curve" smooth="yes"/>
      <point x="557" y="382" type="line"/>
      <point x="557" y="523" type="line" smooth="yes"/>
      <point x="557" y="606"/>
      <point x="574" y="611"/>
      <point x="644" y="614" type="curve"/>
      <point x="650" y="620"/>
      <point x="650" y="641"/>
      <point x="644" y="647" type="curve"/>
      <point x="609" y="646"/>
      <point x="566" y="645"/>
      <point x="531" y="645" type="curve" smooth="yes"/>
      <point x="514" y="645" type="line" smooth="yes"/>
      <point x="477" y="645"/>
      <point x="429" y="646"/>
      <point x="385" y="647" type="curve"/>
      <point x="379" y="641"/>
      <point x="379" y="620"/>
      <point x="385" y="614" type="curve"/>
      <point x="455" y="611"/>
      <point x="472" y="606"/>
      <point x="472" y="523" type="curve" smooth="yes"/>
      <point x="472" y="382" type="line"/>
      <point x="191" y="382" type="line"/>
      <point x="191" y="523" type="line" smooth="yes"/>
      <point x="191" y="606"/>
      <point x="208" y="611"/>
      <point x="278" y="614" type="curve"/>
      <point x="284" y="620"/>
      <point x="284" y="641"/>
      <point x="278" y="647" type="curve"/>
      <point x="240" y="646"/>
      <point x="199" y="645"/>
      <point x="148" y="645" type="curve" smooth="yes"/>
      <point x="98" y="645"/>
      <point x="57" y="646"/>
      <point x="19" y="647" type="curve"/>
      <point x="13" y="641"/>
      <point x="13" y="620"/>
      <point x="19" y="614" type="curve"/>
      <point x="89" y="611"/>
      <point x="106" y="606"/>
      <point x="106" y="523" type="curve" smooth="yes"/>
      <point x="106" y="122" type="line" smooth="yes"/>
      <point x="106" y="39"/>
      <point x="89" y="34"/>
      <point x="19" y="31" type="curve"/>
      <point x="13" y="25"/>
      <point x="13" y="4"/>
      <point x="19" y="-2" type="curve"/>
      <point x="63" y="-1"/>
      <point x="111" y="0"/>
      <point x="149" y="0" type="curve" smooth="yes"/>
      <point x="185" y="0"/>
      <point x="234" y="-1"/>
      <point x="278" y="-2" type="curve"/>
      <point x="284" y="4"/>
      <point x="284" y="25"/>
      <point x="278" y="31" type="curve"/>
      <point x="208" y="34"/>
      <point x="191" y="39"/>
      <point x="191" y="122" type="curve" smooth="yes"/>
      <point x="191" y="340" type="line"/>
      <point x="472" y="340" type="line"/>
      <point x="472" y="122" type="line" smooth="yes"/>
      <point x="472" y="39"/>
      <point x="455" y="34"/>
      <point x="385" y="31" type="curve"/>
      <point x="379" y="25"/>
      <point x="379" y="4"/>
      <point x="385" y="-2" type="curve"/>
      <point x="430" y="-1"/>
      <point x="478" y="0"/>
    </contour>
    <contour>
      <point x="612" y="31" type="curve" smooth="yes"/>
      <point x="557" y="31"/>
      <point x="557" y="39"/>
      <point x="557" y="122" type="curve" smooth="yes"/>
      <point x="557" y="340" type="line"/>
      <point x="640" y="340" type="line" smooth="yes"/>
      <point x="654" y="340"/>
      <point x="667" y="339"/>
      <point x="679" y="337" type="curve" smooth="yes"/>
      <point x="774" y="319"/>
      <point x="798" y="236"/>
      <point x="798" y="183" type="curve" smooth="yes"/>
      <point x="798" y="121"/>
      <point x="764" y="31"/>
    </contour>
  </outline>
</glyph>
<glyph name="uni0454" format="2">
  <advance width="441"/>
  <unicode hex="0454"/>
  <outline>
    <contour>
      <point x="248.965" y="439" type="curve" smooth="yes"/>
      <point x="118" y="439"/>
      <point x="40" y="332"/>
      <point x="40" y="201.459" type="curve" smooth="yes"/>
      <point x="40" y="50"/>
      <point x="145" y="-10"/>
      <point x="240.036" y="-10" type="curve" smooth="yes"/>
      <point x="297.697" y="-10"/>
      <point x="406" y="12.0874"/>
      <point x="406" y="77.2371" type="curve" smooth="yes"/>
      <point x="406" y="98"/>
      <point x="395" y="112"/>
      <point x="373.848" y="112" type="curve" smooth="yes"/>
      <point x="360" y="112"/>
      <point x="346" y="106"/>
      <point x="333.864" y="78.1732" type="curve" smooth="yes"/>
      <point x="317.849" y="41.452"/>
      <point x="289.978" y="23"/>
      <point x="247.305" y="23" type="curve" smooth="yes"/>
      <point x="171" y="23"/>
      <point x="126" y="82"/>
      <point x="126" y="201" type="curve"/>
      <point x="138" y="206"/>
      <point x="151" y="210"/>
      <point x="164" y="210" type="curve" smooth="yes"/>
      <point x="199.732" y="210"/>
      <point x="228.704" y="188"/>
      <point x="265" y="188" type="curve" smooth="yes"/>
      <point x="279.325" y="188"/>
      <point x="354" y="198.229"/>
      <point x="354" y="220" type="curve" smooth="yes"/>
      <point x="354" y="224"/>
      <point x="352" y="234"/>
      <point x="344.674" y="234" type="curve" smooth="yes"/>
      <point x="339" y="234"/>
      <point x="327" y="228"/>
      <point x="314" y="228" type="curve" smooth="yes"/>
      <point x="276.892" y="228"/>
      <point x="250.918" y="256"/>
      <point x="209" y="256" type="curve" smooth="yes"/>
      <point x="180.224" y="256"/>
      <point x="150.721" y="243.349"/>
      <point x="127" y="228" type="curve"/>
      <point x="124" y="230" type="line"/>
      <point x="124" y="322"/>
      <point x="154" y="408"/>
      <point x="247.298" y="408" type="curve" smooth="yes"/>
      <point x="317" y="408"/>
      <point x="348" y="360"/>
      <point x="365" y="296" type="curve"/>
      <point x="374" y="296"/>
      <point x="382" y="297"/>
      <point x="390" y="300" type="curve"/>
      <point x="388" y="349"/>
      <point x="386" y="379"/>
      <point x="382" y="420" type="curve"/>
      <point x="333" y="424"/>
      <point x="298" y="439"/>
    </contour>
  </outline>
</glyph>
<glyph name="uni0473" format="2">
  <advance width="455"/>
  <unicode hex="0473"/>
  <anchor x="224" y="500" name="t.uni0302"/>
  <outline>
    <contour>
      <point x="37" y="203" type="curve" smooth="yes"/>
      <point x="37" y="100"/>
      <point x="98.0798" y="-12"/>
      <point x="226.757" y="-12" type="curve" smooth="yes"/>
      <point x="365.75" y="-12"/>
      <point x="419.5" y="117"/>
      <point x="419.5" y="217" type="curve" smooth="yes"/>
      <point x="419.5" y="321"/>
      <point x="371.835" y="442"/>
      <point x="228.751" y="442" type="curve" smooth="yes"/>
      <point x="102.085" y="442"/>
      <point x="37" y="339"/>
    </contour>
    <contour>
      <point x="338.009" y="237" type="curve"/>
      <point x="325.096" y="232"/>
      <point x="310.197" y="229"/>
      <point x="292.317" y="229" type="curve" smooth="yes"/>
      <point x="253.579" y="229"/>
      <point x="236.693" y="248"/>
      <point x="192.988" y="248" type="curve" smooth="yes"/>
      <point x="163.189" y="248"/>
      <point x="132.397" y="240"/>
      <point x="116.5" y="229" type="curve"/>
      <point x="117.498" y="316"/>
      <point x="146.303" y="409"/>
      <point x="217.82" y="409" type="curve" smooth="yes"/>
      <point x="286.358" y="409"/>
      <point x="328.076" y="350"/>
    </contour>
    <contour>
      <point x="117" y="203" type="curve"/>
      <point x="123.969" y="204"/>
      <point x="131.915" y="207"/>
      <point x="141.847" y="207" type="curve" smooth="yes"/>
      <point x="176.61" y="207"/>
      <point x="205.414" y="180"/>
      <point x="248.123" y="180" type="curve" smooth="yes"/>
      <point x="281.893" y="180"/>
      <point x="317.649" y="198"/>
      <point x="339.5" y="210" type="curve"/>
      <point x="339.5" y="145.827"/>
      <point x="335.596" y="23"/>
      <point x="243.156" y="23" type="curve" smooth="yes"/>
      <point x="158.73" y="23"/>
      <point x="122.973" y="126"/>
    </contour>
  </outline>
</glyph>
<glyph name="uni04A8" format="2">
  <advance width="678"/>
  <unicode hex="04A8"/>
  <outline>
    <contour>
      <point x="552" y="-108" type="curve" smooth="yes"/>
      <point x="483" y="-108"/>
      <point x="437" y="-65"/>
      <point x="408" y="-10" type="curve"/>
      <point x="533" y="4"/>
      <point x="628" y="87"/>
      <point x="628" y="225" type="curve" smooth="yes"/>
      <point x="628" y="329"/>
      <point x="587" y="442"/>
      <point x="450" y="442" type="curve" smooth="yes"/>
      <point x="321" y="442"/>
      <point x="270" y="332"/>
      <point x="270" y="196" type="curve" smooth="yes"/>
      <point x="270" y="152"/>
      <point x="279" y="90"/>
      <point x="303" y="30" type="curve"/>
      <point x="174" y="63"/>
      <point x="128" y="189"/>
      <point x="128" y="328" type="curve" smooth="yes"/>
      <point x="128" y="454"/>
      <point x="209" y="620"/>
      <point x="327" y="620" type="curve" smooth="yes"/>
      <point x="358" y="620"/>
      <point x="387" y="618"/>
      <point x="412" y="587" type="curve" smooth="yes"/>
      <point x="417" y="581"/>
      <point x="421" y="574"/>
      <point x="426" y="565" type="curve" smooth="yes"/>
      <point x="442" y="536"/>
      <point x="456" y="521"/>
      <point x="482" y="521" type="curve" smooth="yes"/>
      <point x="504" y="521"/>
      <point x="516" y="541"/>
      <point x="516" y="561" type="curve" smooth="yes"/>
      <point x="516" y="583"/>
      <point x="499" y="604"/>
      <point x="477" y="621" type="curve" smooth="yes"/>
      <point x="452" y="641"/>
      <point x="410" y="659"/>
      <point x="347" y="659" type="curve" smooth="yes"/>
      <point x="188" y="659"/>
      <point x="36" y="510"/>
      <point x="36" y="329" type="curve" smooth="yes"/>
      <point x="36" y="136"/>
      <point x="134" y="9"/>
      <point x="322" y="-10" type="curve"/>
      <point x="360" y="-79"/>
      <point x="423" y="-138"/>
      <point x="522" y="-147" type="curve"/>
      <point x="530" y="-148"/>
      <point x="538" y="-148"/>
      <point x="547" y="-148" type="curve" smooth="yes"/>
      <point x="612" y="-148" type="line" smooth="yes"/>
      <point x="630" y="-148"/>
      <point x="646" y="-166"/>
      <point x="646" y="-183" type="curve"/>
      <point x="669" y="-181" type="line"/>
      <point x="667" y="-162"/>
      <point x="665" y="-132"/>
      <point x="665" y="-113" type="curve" smooth="yes"/>
      <point x="665" y="-93"/>
      <point x="666" y="-73"/>
      <point x="668" y="-52" type="curve"/>
      <point x="668" y="-45"/>
      <point x="669" y="-38"/>
      <point x="669" y="-31" type="curve"/>
      <point x="648" y="-29" type="line"/>
      <point x="648" y="-68"/>
      <point x="636" y="-108"/>
    </contour>
    <contour>
      <point x="355" y="207" type="curve" smooth="yes"/>
      <point x="355" y="334"/>
      <point x="389" y="404"/>
      <point x="450" y="404" type="curve" smooth="yes"/>
      <point x="531" y="404"/>
      <point x="551" y="331"/>
      <point x="551" y="208" type="curve" smooth="yes"/>
      <point x="551" y="90"/>
      <point x="451" y="34"/>
      <point x="392" y="24" type="curve"/>
      <point x="363" y="93"/>
      <point x="355" y="172"/>
    </contour>
  </outline>
</glyph>
<glyph name="uni04CB" format="2">
  <advance width="627"/>
  <unicode hex="04CB"/>
  <outline>
    <contour>
      <point x="529" y="73" type="curve" smooth="yes"/>
      <point x="529" y="577" type="line" smooth="yes"/>
      <point x="529" y="607"/>
      <point x="533" y="616"/>
      <point x="552" y="618" type="curve"/>
      <point x="557" y="619"/>
      <point x="562" y="619"/>
      <point x="569" y="619" type="curve" smooth="yes"/>
      <point x="584" y="619" type="line"/>
      <point x="598" y="619" type="line" smooth="yes"/>
      <point x="600" y="619"/>
      <point x="602" y="620"/>
      <point x="603" y="621" type="curve" smooth="yes"/>
      <point x="604" y="622"/>
      <point x="604" y="623"/>
      <point x="604" y="625" type="curve" smooth="yes"/>
      <point x="604" y="646" type="line"/>
      <point x="566" y="645"/>
      <point x="527" y="645"/>
      <point x="489" y="644" type="curve"/>
      <point x="475" y="644" type="line"/>
      <point x="375" y="646" type="line"/>
      <point x="375" y="624" type="line" smooth="yes"/>
      <point x="375" y="623"/>
      <point x="375" y="621"/>
      <point x="376" y="620" type="curve"/>
      <point x="377" y="620"/>
      <point x="378" y="619"/>
      <point x="379" y="619" type="curve" smooth="yes"/>
      <point x="409" y="619" type="line" smooth="yes"/>
      <point x="438" y="619"/>
      <point x="446" y="615"/>
      <point x="448" y="595" type="curve"/>
      <point x="449" y="590"/>
      <point x="449" y="584"/>
      <point x="449" y="577" type="curve" smooth="yes"/>
      <point x="449" y="371" type="line"/>
      <point x="449" y="355" type="line"/>
      <point x="388" y="301"/>
      <point x="321" y="299"/>
      <point x="292" y="299" type="curve" smooth="yes"/>
      <point x="220" y="299"/>
      <point x="178" y="326"/>
      <point x="178" y="408" type="curve" smooth="yes"/>
      <point x="178" y="578" type="line" smooth="yes"/>
      <point x="178" y="603"/>
      <point x="179" y="615"/>
      <point x="201" y="619" type="curve" smooth="yes"/>
      <point x="207" y="620"/>
      <point x="214" y="620"/>
      <point x="222" y="620" type="curve" smooth="yes"/>
      <point x="239" y="620" type="line" smooth="yes"/>
      <point x="243" y="620"/>
      <point x="245" y="621"/>
      <point x="245" y="625" type="curve" smooth="yes"/>
      <point x="245" y="646" type="line"/>
      <point x="214" y="646"/>
      <point x="183" y="645"/>
      <point x="152" y="645" type="curve" smooth="yes"/>
      <point x="137" y="645" type="line"/>
      <point x="29" y="646" type="line"/>
      <point x="29" y="625" type="line" smooth="yes"/>
      <point x="29" y="624"/>
      <point x="30" y="622"/>
      <point x="31" y="621" type="curve"/>
      <point x="32" y="621"/>
      <point x="34" y="620"/>
      <point x="36" y="620" type="curve" smooth="yes"/>
      <point x="53" y="620" type="line" smooth="yes"/>
      <point x="61" y="620"/>
      <point x="67" y="620"/>
      <point x="73" y="619" type="curve" smooth="yes"/>
      <point x="94" y="616"/>
      <point x="97" y="606"/>
      <point x="97" y="578" type="curve" smooth="yes"/>
      <point x="97" y="412" type="line" smooth="yes"/>
      <point x="97" y="321"/>
      <point x="136" y="241"/>
      <point x="250" y="241" type="curve" smooth="yes"/>
      <point x="308" y="241"/>
      <point x="369" y="249"/>
      <point x="449" y="330" type="curve"/>
      <point x="449" y="74" type="line" smooth="yes"/>
      <point x="449" y="52"/>
      <point x="446" y="34"/>
      <point x="429" y="27" type="curve"/>
      <point x="424" y="26"/>
      <point x="419" y="25"/>
      <point x="413" y="25" type="curve"/>
      <point x="413" y="25" type="line"/>
      <point x="407" y="25"/>
      <point x="402" y="25"/>
      <point x="396" y="25" type="curve" smooth="yes"/>
      <point x="390" y="25"/>
      <point x="376" y="20"/>
      <point x="376" y="5" type="curve"/>
      <point x="369" y="-141" type="line"/>
      <point x="396" y="-141" type="line"/>
      <point x="407" y="-65"/>
      <point x="444" y="-9"/>
      <point x="522" y="-2" type="curve"/>
      <point x="528" y="-1"/>
      <point x="535" y="-1"/>
      <point x="541" y="-1" type="curve" smooth="yes"/>
      <point x="613" y="-1" type="line"/>
      <point x="613" y="21" type="line" smooth="yes"/>
      <point x="613" y="24"/>
      <point x="612" y="26"/>
      <point x="608" y="26" type="curve" smooth="yes"/>
      <point x="569" y="26" type="line" smooth="yes"/>
      <point x="562" y="26"/>
      <point x="556" y="27"/>
      <point x="551" y="28" type="curve" smooth="yes"/>
      <point x="532" y="32"/>
      <point x="529" y="46"/>
    </contour>
  </outline>
</glyph>
<glyph name="uni05D1" format="2">
  <advance width="468"/>
  <unicode hex="05D1"/>
  <anchor x="226" y="573" name="m.uni0302"/>
  <anchor x="238" y="1" name="m.uni0316_2"/>
  <anchor x="173" y="264" name="m.uni0334_6"/>
  <outline>
    <contour>
      <point x="347.281" y="85.8188" type="curve"/>
      <point x="355.46" y="85.5996" type="line"/>
      <point x="393.997" y="141.556"/>
      <point x="408" y="229.808"/>
      <point x="408" y="289" type="curve" smooth="yes"/>
      <point x="408" y="477.641"/>
      <point x="376.827" y="520"/>
      <point x="238" y="520" type="curve" smooth="yes"/>
      <point x="131" y="520" type="line" smooth="yes"/>
      <point x="104" y="520"/>
      <point x="89" y="542"/>
      <point x="88.775" y="565" type="curve"/>
      <point x="57.6529" y="560.609"/>
      <point x="32.0179" y="525.792"/>
      <point x="32.0179" y="495.868" type="curve" smooth="yes"/>
      <point x="32.0179" y="444.363"/>
      <point x="62.6676" y="413"/>
      <point x="113" y="413" type="curve" smooth="yes"/>
      <point x="267" y="413" type="line" smooth="yes"/>
      <point x="354.759" y="413"/>
      <point x="370" y="387.845"/>
      <point x="370" y="243" type="curve" smooth="yes"/>
      <point x="370" y="174.576"/>
      <point x="364.021" y="128.401"/>
    </contour>
    <contour>
      <point x="44" y="100" type="line"/>
      <point x="20" y="0" type="line"/>
      <point x="424" y="0" type="line"/>
      <point x="447" y="100" type="line"/>
    </contour>
  </outline>
</glyph>
<glyph name="uni05F2" format="2">
  <advance width="533"/>
  <unicode hex="05F2"/>
  <anchor x="244" y="573" name="m.uni0302"/>
  <anchor x="240" y="0" name="m.uni0316_2"/>
  <outline>
    <contour>
      <point x="418" y="243" type="line"/>
      <point x="484" y="278"/>
      <point x="494" y="369"/>
      <point x="494" y="411" type="curve" smooth="yes"/>
      <point x="494" y="502"/>
      <point x="476" y="521"/>
      <point x="406" y="521" type="curve" smooth="yes"/>
      <point x="375" y="521"/>
      <point x="340" y="521"/>
      <point x="335" y="559" type="curve"/>
      <point x="335" y="559"/>
      <point x="293" y="554"/>
      <point x="293" y="487" type="curve" smooth="yes"/>
      <point x="293" y="443"/>
      <point x="324.004" y="417.097"/>
      <point x="378" y="415" type="curve" smooth="yes"/>
      <point x="427.004" y="413.097"/>
      <point x="457" y="394"/>
      <point x="457" y="361" type="curve" smooth="yes"/>
      <point x="457" y="315"/>
      <point x="447" y="276"/>
      <point x="412" y="250" type="curve"/>
    </contour>
    <contour>
      <point x="152" y="243" type="line"/>
      <point x="218" y="278"/>
      <point x="228" y="369"/>
      <point x="228" y="411" type="curve" smooth="yes"/>
      <point x="228" y="502"/>
      <point x="210" y="521"/>
      <point x="140" y="521" type="curve" smooth="yes"/>
      <point x="109" y="521"/>
      <point x="74" y="521"/>
      <point x="69" y="559" type="curve"/>
      <point x="69" y="559"/>
      <point x="27" y="554"/>
      <point x="27" y="487" type="curve" smooth="yes"/>
      <point x="27" y="443"/>
      <point x="58" y="417"/>
      <point x="112" y="415" type="curve" smooth="yes"/>
      <point x="161" y="413"/>
      <point x="191" y="394"/>
      <point x="191" y="361" type="curve" smooth="yes"/>
      <point x="191" y="315"/>
      <point x="181" y="276"/>
      <point x="146" y="250" type="curve"/>
    </contour>
  </outline>
</glyph>
<glyph name="uni20A2" format="2">
  <advance width="511"/>
  <unicode hex="20A2"/>
  <outline>
    <contour>
      <point x="321.083" y="204.965" type="line" smooth="yes"/>
      <point x="321.083" y="225.959"/>
      <point x="360.577" y="308.058"/>
      <point x="381.046" y="308.058" type="curve" smooth="yes"/>
      <point x="409.613" y="308.058"/>
      <point x="394.083" y="272.291"/>
      <point x="441.008" y="272.291" type="curve" smooth="yes"/>
      <point x="462.728" y="272.291"/>
      <point x="475.723" y="297.352"/>
      <point x="475.723" y="316.474" type="curve" smooth="yes"/>
      <point x="475.723" y="346.246"/>
      <point x="448.153" y="359.605"/>
      <point x="422.072" y="359.605" type="curve" smooth="yes"/>
      <point x="379.463" y="359.605"/>
      <point x="339.258" y="301.117"/>
      <point x="322.135" y="265.98" type="curve"/>
      <point x="320.032" y="265.98" type="line"/>
      <point x="320.032" y="358.553" type="line"/>
      <point x="305.304" y="358.553" type="line"/>
      <point x="285.038" y="348.067"/>
      <point x="222.678" y="327.628"/>
      <point x="198.003" y="321.734" type="curve"/>
      <point x="198.003" y="312.633"/>
      <point x="200.491" y="301.546"/>
      <point x="203.263" y="294.383" type="curve"/>
      <point x="227.701" y="294.383"/>
      <point x="246.394" y="274.632"/>
      <point x="246.394" y="255.46" type="curve" smooth="yes"/>
      <point x="246.394" y="106.725" type="line" smooth="yes"/>
      <point x="246.394" y="83.6848"/>
      <point x="243.948" y="59.0703"/>
      <point x="235.874" y="37.7024" type="curve"/>
      <point x="162.174" y="63.3715"/>
      <point x="132.781" y="237.897"/>
      <point x="132.781" y="326.994" type="curve" smooth="yes"/>
      <point x="132.781" y="419.643"/>
      <point x="163.377" y="612.077"/>
      <point x="288.473" y="612.077" type="curve" smooth="yes"/>
      <point x="362.382" y="612.077"/>
      <point x="411.097" y="541.954"/>
      <point x="416.813" y="474.269" type="curve"/>
      <point x="426.303" y="474.269"/>
      <point x="438.311" y="474.225"/>
      <point x="445.216" y="476.373" type="curve"/>
      <point x="439.961" y="534.202"/>
      <point x="440.349" y="578.221"/>
      <point x="446.285" y="634.151" type="curve"/>
      <point x="405.241" y="634.151"/>
      <point x="350.305" y="651"/>
      <point x="290.576" y="651" type="curve" smooth="yes"/>
      <point x="112.587" y="651"/>
      <point x="36" y="464.159"/>
      <point x="36" y="311.214" type="curve" smooth="yes"/>
      <point x="36" y="159.648"/>
      <point x="101.114" y="-17"/>
      <point x="277.953" y="-17" type="curve" smooth="yes"/>
      <point x="357.508" y="-17"/>
      <point x="420.524" y="46.2059"/>
      <point x="441.008" y="119.756" type="curve"/>
      <point x="434.738" y="123.948"/>
      <point x="423.345" y="127.12"/>
      <point x="414.709" y="127.12" type="curve"/>
      <point x="398.946" y="83.3042"/>
      <point x="378.263" y="46.6394"/>
      <point x="331.603" y="35.5985" type="curve"/>
      <point x="322.92" y="58.989"/>
      <point x="321.084" y="82.9982"/>
      <point x="321.083" y="106.725" type="curve" smooth="yes"/>
    </contour>
  </outline>
</glyph>
<glyph name="austral" format="2">
  <advance width="695"/>
  <unicode hex="20B3"/>
  <anchor x="354" y="740" name="t.uni0302"/>
  <anchor x="358" y="620" name="t.ring"/>
  <anchor x="600" y="10" name="b.ogonek"/>
  <anchor x="353" y="-60" name="b.minus-60"/>
  <outline>
    <contour>
      <point x="155" y="79" type="curve" smooth="yes"/>
      <point x="340" y="555" type="line"/>
      <point x="346" y="555" type="line"/>
      <point x="514" y="72" type="line" smooth="yes"/>
      <point x="526" y="38"/>
      <point x="488" y="34"/>
      <point x="440" y="31" type="curve"/>
      <point x="434" y="25"/>
      <point x="434" y="4"/>
      <point x="440" y="-2" type="curve"/>
      <point x="477" y="-1"/>
      <point x="532" y="0"/>
      <point x="571" y="0" type="curve" smooth="yes"/>
      <point x="612" y="0"/>
      <point x="650" y="-1"/>
      <point x="685" y="-2" type="curve"/>
      <point x="691" y="4"/>
      <point x="691" y="25"/>
      <point x="685" y="31" type="curve"/>
      <point x="646" y="35"/>
      <point x="612.254" y="38.0907"/>
      <point x="595" y="86" type="curve" smooth="yes"/>
      <point x="389" y="658" type="line"/>
      <point x="374" y="649"/>
      <point x="347" y="638"/>
      <point x="334" y="638" type="curve"/>
      <point x="107" y="102" type="line" smooth="yes"/>
      <point x="81" y="40"/>
      <point x="51" y="34"/>
      <point x="7" y="31" type="curve"/>
      <point x="1" y="25"/>
      <point x="1" y="4"/>
      <point x="7" y="-2" type="curve"/>
      <point x="33" y="-1"/>
      <point x="66" y="0"/>
      <point x="96" y="0" type="curve" smooth="yes"/>
      <point x="137" y="0"/>
      <point x="187" y="-1"/>
      <point x="224" y="-2" type="curve"/>
      <point x="230" y="4"/>
      <point x="230" y="25"/>
      <point x="224" y="31" type="curve"/>
      <point x="186" y="34"/>
      <point x="139" y="38"/>
    </contour>
    <contour>
      <point x="98.0598" y="207" type="curve" smooth="yes"/>
      <point x="278.904" y="207" type="line"/>
      <point x="278.904" y="246" type="line"/>
      <point x="106.06" y="246" type="line" smooth="yes"/>
      <point x="97.0598" y="246"/>
      <point x="87.0598" y="231"/>
      <point x="87.0598" y="221" type="curve" smooth="yes"/>
      <point x="87.0598" y="215"/>
      <point x="90.0598" y="207"/>
    </contour>
    <contour>
      <point x="466.268" y="207" type="line"/>
      <point x="599" y="207" type="line" smooth="yes"/>
      <point x="611" y="207"/>
      <point x="620" y="222"/>
      <point x="620" y="233" type="curve" smooth="yes"/>
      <point x="620" y="238"/>
      <point x="617" y="246"/>
      <point x="608" y="246" type="curve" smooth="yes"/>
      <point x="466.234" y="246" type="line"/>
    </contour>
    <contour>
      <point x="222.578" y="207" type="line"/>
      <point x="513" y="207" type="line"/>
      <point x="513" y="246" type="line"/>
      <point x="222.578" y="246" type="line"/>
    </contour>
    <contour>
      <point x="222.578" y="331.844" type="line"/>
      <point x="463" y="331.844" type="line"/>
      <point x="463" y="370.844" type="line"/>
      <point x="222.578" y="370.844" type="line"/>
    </contour>
    <contour>
      <point x="456.266" y="331.844" type="line"/>
      <point x="554.394" y="331.844" type="line" smooth="yes"/>
      <point x="566.394" y="331.844"/>
      <point x="575.394" y="346.844"/>
      <point x="575.394" y="357.844" type="curve" smooth="yes"/>
      <point x="575.394" y="362.844"/>
      <point x="572.394" y="370.844"/>
      <point x="563.394" y="370.844" type="curve" smooth="yes"/>
      <point x="456.233" y="370.844" type="line"/>
    </contour>
    <contour>
      <point x="150.152" y="331.844" type="curve" smooth="yes"/>
      <point x="278.846" y="331.844" type="line"/>
      <point x="278.846" y="370.844" type="line"/>
      <point x="158.152" y="370.844" type="line" smooth="yes"/>
      <point x="149.152" y="370.844"/>
      <point x="139.152" y="355.844"/>
      <point x="139.152" y="345.844" type="curve" smooth="yes"/>
      <point x="139.152" y="339.844"/>
      <point x="142.152" y="331.844"/>
    </contour>
  </outline>
</glyph>
<glyph name="uni24E9" format="2">
  <advance width="759"/>
  <unicode hex="24E9"/>
  <outline>
    <contour>
      <point x="378" y="-15" type="curve" smooth="yes"/>
      <point x="560" y="-15"/>
      <point x="709" y="133"/>
      <point x="709" y="316" type="curve" smooth="yes"/>
      <point x="709" y="498"/>
      <point x="560" y="645"/>
      <point x="378" y="645" type="curve" smooth="yes"/>
      <point x="196" y="645"/>
      <point x="49" y="498"/>
      <point x="49" y="316" type="curve" smooth="yes"/>
      <point x="49" y="133"/>
      <point x="196" y="-15"/>
    </contour>
    <contour>
      <point x="378" y="609" type="curve" smooth="yes"/>
      <point x="541" y="609"/>
      <point x="672" y="478"/>
      <point x="672" y="316" type="curve" smooth="yes"/>
      <point x="672" y="153"/>
      <point x="539" y="22"/>
      <point x="378" y="22" type="curve" smooth="yes"/>
      <point x="216" y="22"/>
      <point x="86" y="153"/>
      <point x="86" y="316" type="curve" smooth="yes"/>
      <point x="86" y="477"/>
      <point x="216" y="609"/>
    </contour>
    <contour>
      <point x="308" y="431" type="line" smooth="yes"/>
      <point x="298" y="431"/>
      <point x="281" y="434"/>
      <point x="276" y="439" type="curve"/>
      <point x="270" y="438" type="line"/>
      <point x="270" y="410"/>
      <point x="266" y="385"/>
      <point x="261" y="355" type="curve"/>
      <point x="267" y="352"/>
      <point x="276" y="351"/>
      <point x="283" y="352" type="curve"/>
      <point x="295" y="396"/>
      <point x="316" y="402"/>
      <point x="335" y="402" type="curve" smooth="yes"/>
      <point x="411" y="402" type="line"/>
      <point x="265" y="184" type="line"/>
      <point x="260" y="176"/>
      <point x="260" y="175"/>
      <point x="260" y="171" type="curve" smooth="yes"/>
      <point x="260" y="167"/>
      <point x="264" y="164"/>
      <point x="274" y="164" type="curve" smooth="yes"/>
      <point x="471" y="164" type="line"/>
      <point x="474" y="183"/>
      <point x="480" y="212"/>
      <point x="491" y="248" type="curve"/>
      <point x="484" y="251"/>
      <point x="477" y="252"/>
      <point x="469" y="252" type="curve"/>
      <point x="462" y="235" type="line"/>
      <point x="447" y="202"/>
      <point x="437" y="194"/>
      <point x="401" y="194" type="curve" smooth="yes"/>
      <point x="327" y="194" type="line"/>
      <point x="469" y="404" type="line" smooth="yes"/>
      <point x="481.896" y="423.071"/>
      <point x="482" y="427"/>
      <point x="482" y="429" type="curve" smooth="yes"/>
      <point x="482" y="430" type="line" smooth="yes"/>
      <point x="482" y="433"/>
      <point x="478" y="433"/>
      <point x="474" y="433" type="curve" smooth="yes"/>
      <point x="472" y="433"/>
      <point x="444" y="431"/>
      <point x="426" y="431" type="curve" smooth="yes"/>
    </contour>
  </outline>
</glyph>
<glyph name="brackethalftopleft" format="2">
  <advance width="356"/>
  <unicode hex="2E22"/>
  <outline>
    <contour>
      <point x="108" y="250.288" type="line"/>
      <point x="175" y="250.288" type="line"/>
      <point x="175" y="561" type="line" smooth="yes"/>
      <point x="175" y="648"/>
      <point x="183" y="663"/>
      <point x="320" y="673" type="curve"/>
      <point x="326" y="679"/>
      <point x="326" y="697"/>
      <point x="320" y="703" type="curve"/>
      <point x="108" y="703" type="line"/>
    </contour>
  </outline>
</glyph>
<glyph name="_corner.LClb" format="2">
  <advance width="149"/>
  <anchor x="94" y="0" name="origin"/>
  <anchor x="94" y="122" name="left"/>
  <anchor x="129" y="0" name="right"/>
  <outline>
    <contour>
      <point x="94" y="122" type="move"/>
      <point x="94" y="39"/>
      <point x="76" y="34"/>
      <point x="22" y="31" type="curve"/>
      <point x="16" y="25"/>
      <point x="16" y="4"/>
      <point x="22" y="-2" type="curve"/>
      <point x="64" y="0"/>
      <point x="88" y="0"/>
      <point x="129" y="0" type="curve"/>
    </contour>
  </outline>
</glyph>
<glyph name="uni03060309" format="2">
  <anchor x="-160" y="500" name="_t.uni0302"/>
  <outline>
    <component base="breve" xOffset="-316"/>
    <contour>
      <point x="-110.44" y="690.395" type="curve" smooth="yes"/>
      <point x="-110.44" y="716.395"/>
      <point x="-130.44" y="732.395"/>
      <point x="-162.44" y="732.395" type="curve" smooth="yes"/>
      <point x="-190.44" y="732.395"/>
      <point x="-216.44" y="712.395"/>
      <point x="-216.44" y="691.395" type="curve" smooth="yes"/>
      <point x="-216.44" y="679.395"/>
      <point x="-208.44" y="671.395"/>
      <point x="-197.44" y="671.395" type="curve" smooth="yes"/>
      <point x="-187.44" y="671.395"/>
      <point x="-176.44" y="678.395"/>
      <point x="-176.44" y="686.395" type="curve" smooth="yes"/>
      <point x="-176.44" y="691.395"/>
      <point x="-177.317" y="693.491"/>
      <point x="-180.44" y="697.395" type="curve" smooth="yes"/>
      <point x="-181.324" y="698.5"/>
      <point x="-181.44" y="700.395"/>
      <point x="-181.44" y="701.395" type="curve" smooth="yes"/>
      <point x="-181.44" y="708.395"/>
      <point x="-174.44" y="712.395"/>
      <point x="-168.44" y="712.395" type="curve" smooth="yes"/>
      <point x="-152.44" y="712.395"/>
      <point x="-148.44" y="701.395"/>
      <point x="-148.44" y="686.395" type="curve" smooth="yes"/>
      <point x="-148.44" y="680.395"/>
      <point x="-150.377" y="672.357"/>
      <point x="-156.44" y="662.395" type="curve" smooth="yes"/>
      <point x="-164.377" y="649.356"/>
      <point x="-174.44" y="628.395"/>
      <point x="-174.44" y="608.395" type="curve"/>
      <point x="-168.44" y="605.395"/>
      <point x="-160.44" y="604.395"/>
      <point x="-153.44" y="608.395" type="curve"/>
      <point x="-152.44" y="626.395"/>
      <point x="-146.389" y="639.34"/>
      <point x="-133.44" y="651.395" type="curve" smooth="yes"/>
      <point x="-117.389" y="666.34"/>
      <point x="-110.44" y="677.395"/>
    </contour>
  </outline>
</glyph>
